<?xml version="1.0" encoding="utf-8"?>
<!-- Generator: Adobe Illustrator 18.0.0, SVG Export Plug-In . SVG Version: 6.00 Build 0)  -->
<!DOCTYPE svg PUBLIC "-//W3C//DTD SVG 1.1//EN" "http://www.w3.org/Graphics/SVG/1.1/DTD/svg11.dtd">
<svg version="1.1" id="Layer_1" xmlns="http://www.w3.org/2000/svg" xmlns:xlink="http://www.w3.org/1999/xlink" x="0px" y="0px"
	 viewBox="0 0 512 512" enable-background="new 0 0 512 512" xml:space="preserve">
<path d="M377.5,357.2l90.1-90.1c3-3,4.4-6.9,4.4-10.9c0-0.1,0-0.2,0-0.2c0-5.3-2.7-9.9-6.9-12.6l-88.6-88.6
	c-5.9-5.9-15.4-5.9-21.2,0c-2.9,2.9-4.4,6.8-4.4,10.6s1.5,7.7,4.4,10.6l65,65H55c-8.3,0-15,6.7-15,15s6.7,15,15,15h366.3l-65,65
	c-5.9,5.9-5.9,15.4,0,21.2C362.2,363,371.7,363,377.5,357.2z"/>
</svg>
