<?xml version="1.0" encoding="utf-8"?>
<!-- Generator: Adobe Illustrator 18.0.0, SVG Export Plug-In . SVG Version: 6.00 Build 0)  -->
<!DOCTYPE svg PUBLIC "-//W3C//DTD SVG 1.1//EN" "http://www.w3.org/Graphics/SVG/1.1/DTD/svg11.dtd">
<svg version="1.1" id="Layer_1" xmlns="http://www.w3.org/2000/svg" xmlns:xlink="http://www.w3.org/1999/xlink" x="0px" y="0px"
	 viewBox="0 0 512 512" enable-background="new 0 0 512 512" xml:space="preserve">
<path d="M357.2,134.5l-90.1-90.1c-3-3-6.9-4.4-10.9-4.4c-0.1,0-0.2,0-0.2,0c-5.3,0-9.9,2.7-12.6,6.9l-88.6,88.6
	c-5.9,5.9-5.9,15.4,0,21.2c2.9,2.9,6.8,4.4,10.6,4.4s7.7-1.5,10.6-4.4l65-65V457c0,8.3,6.7,15,15,15s15-6.7,15-15V90.7l65,65
	c5.9,5.9,15.4,5.9,21.2,0C363,149.8,363,140.3,357.2,134.5z"/>
</svg>
