<?xml version="1.0" encoding="utf-8"?>
<!-- Generator: Adobe Illustrator 18.0.0, SVG Export Plug-In . SVG Version: 6.00 Build 0)  -->
<!DOCTYPE svg PUBLIC "-//W3C//DTD SVG 1.1//EN" "http://www.w3.org/Graphics/SVG/1.1/DTD/svg11.dtd">
<svg version="1.1" id="Layer_1" xmlns="http://www.w3.org/2000/svg" xmlns:xlink="http://www.w3.org/1999/xlink" x="0px" y="0px"
	 viewBox="0 0 512 512" enable-background="new 0 0 512 512" xml:space="preserve">
<path d="M154.8,377.5l90.1,90.1c3,3,6.9,4.4,10.9,4.4c0.1,0,0.2,0,0.2,0c5.3,0,9.9-2.7,12.6-6.9l88.6-88.6c5.9-5.9,5.9-15.4,0-21.2
	c-2.9-2.9-6.8-4.4-10.6-4.4s-7.7,1.5-10.6,4.4l-65,65V55c0-8.3-6.7-15-15-15s-15,6.7-15,15v366.3l-65-65c-5.9-5.9-15.4-5.9-21.2,0
	C149,362.2,149,371.7,154.8,377.5z"/>
</svg>
