<?xml version="1.0" encoding="utf-8"?>
<!-- Generator: Adobe Illustrator 18.0.0, SVG Export Plug-In . SVG Version: 6.00 Build 0)  -->
<!DOCTYPE svg PUBLIC "-//W3C//DTD SVG 1.1//EN" "http://www.w3.org/Graphics/SVG/1.1/DTD/svg11.dtd">
<svg version="1.1" id="Layer_1" xmlns="http://www.w3.org/2000/svg" xmlns:xlink="http://www.w3.org/1999/xlink" x="0px" y="0px"
	 viewBox="0 0 512 512" enable-background="new 0 0 512 512" xml:space="preserve">
<path d="M383,472H129c-30.3,0-55-24.7-55-55v-31.6c0-25,13.7-47.9,35.7-59.9c0.5-0.3,1-0.5,1.6-0.8l79.5-31.9
	c2.6-1.7,4.2-4.6,4.2-7.7v-19.8c-4.9-7.8-15.4-25.9-21.6-47.1c-8.8-5.3-14.9-15.6-16.7-25.2c-1.2-6.2-4.2-24-4.3-24.7
	c-0.1-0.8-0.2-1.7-0.2-2.5c0-9.9,7.3-16.8,13.2-22.3c0.9-0.8,2-1.9,2.8-2.7c0.2-3.1,0.2-9.1,0-14.2c-0.5-4.9-2.4-36.4,18.9-60.3
	C202.6,48.8,225.8,40,256,40s53.4,8.8,68.9,26.2c21.3,23.9,19.4,55.3,18.9,60.3c-0.3,5.2-0.3,11.1,0,14.2c0.8,0.9,2,1.9,2.8,2.7
	c5.9,5.6,13.2,12.5,13.2,22.3c0,0.8-0.1,1.7-0.2,2.5c-0.1,0.8-3.1,18.6-4.3,24.7c-1.8,9.6-7.9,19.9-16.7,25.2
	c-6.2,21.2-16.7,39.3-21.6,47.1v19.8c0,3.1,1.6,6,4.2,7.7l79.5,31.9c0.5,0.2,1.1,0.5,1.6,0.8c22,12,35.7,35,35.7,59.9V417
	C438,447.3,413.3,472,383,472z M123.3,352.2c-11.9,6.8-19.3,19.5-19.3,33.2V417c0,13.8,11.2,25,25,25h254c13.8,0,25-11.2,25-25
	v-31.6c0-13.7-7.4-26.3-19.3-33.2l-79.6-32c-0.5-0.2-1.1-0.5-1.6-0.7c-12.6-6.9-20.5-20.1-20.5-34.4v-24.3c0-3.1,0.9-6.1,2.7-8.6
	c0.1-0.2,15.9-23.1,21.8-48.7c1.4-6,6.2-10.4,12.1-11.4c0.8-0.9,1.9-2.7,2.3-4.7c0.7-3.9,2.3-13.2,3.3-19.1c-1-1-2.3-2.2-3.1-3
	c-4.2-4-8.2-7.7-10.3-12.9c-3-7.4-2.2-22.8-1.9-27.9c0-0.3,0-0.6,0.1-0.9c0-0.1,2.1-22.4-11.6-37.6c-9.5-10.6-25.1-16-46.3-16
	c-21.3,0-37,5.4-46.5,16.1c-13.6,15.3-11.5,37.2-11.4,37.5c0,0.3,0.1,0.6,0.1,0.9c1.1,20.5-1.1,26-1.9,27.9
	c-2.1,5.2-6.1,8.9-10.3,12.9c-0.9,0.8-2.1,2-3.1,3c1,5.9,2.6,15.2,3.3,19.1c0.4,2,1.5,3.8,2.3,4.7c5.9,1,10.7,5.5,12.1,11.4
	c5.9,25.8,21.6,48.5,21.8,48.7c1.8,2.5,2.7,5.5,2.7,8.6v24.3c0,14.3-7.8,27.5-20.5,34.4c-0.5,0.3-1,0.5-1.6,0.7L123.3,352.2z"/>
</svg>
