<?xml version="1.0" encoding="utf-8"?>
<!-- Generator: Adobe Illustrator 18.0.0, SVG Export Plug-In . SVG Version: 6.00 Build 0)  -->
<!DOCTYPE svg PUBLIC "-//W3C//DTD SVG 1.1//EN" "http://www.w3.org/Graphics/SVG/1.1/DTD/svg11.dtd">
<svg version="1.1" id="Layer_1" xmlns="http://www.w3.org/2000/svg" xmlns:xlink="http://www.w3.org/1999/xlink" x="0px" y="0px"
	 viewBox="0 0 512 512" enable-background="new 0 0 512 512" xml:space="preserve">
<g>
	<path d="M457,107H105.1c-8.3,0-15.1,6.4-15.1,14.7V157H55c-8.3,0-15,6.4-15,14.7v218.6c0,8.3,6.7,14.7,15,14.7h351.9
		c8.3,0,15.1-6.4,15.1-14.7V355h35c8.3,0,15-6.4,15-14.7V121.7C472,113.4,465.3,107,457,107z M392,375H70V187h322V375z M442,325h-20
		V171.7c0-8.3-6.8-14.7-15.1-14.7H120v-20h322V325z"/>
	<path d="M201.6,276.3c6.7,0.2,12.1-5,12.3-11.7c0.1-4.5,1.4-7.9,4.1-10.6c2.6-2.6,5.6-3.8,9.6-3.8c4.9,0,7.2,1.7,8.6,3.2
		c2.3,2.4,3.3,4.8,3.3,8c0,2.4-0.5,4.5-1.7,6.6c-0.9,1.7-3.5,5.6-10.4,13.1l-33.2,34.7c-3.3,3.5-4.3,8.6-2.4,13s6.2,7.3,11,7.3h49.7
		c6.6,0,12-5.4,12-12s-5.4-12-12-12h-21.6l13.8-14.4c0.1-0.1,0.1-0.1,0.2-0.2c6.8-7.4,11.3-13.2,13.9-18c3.1-5.6,4.6-11.7,4.6-18.1
		c0-9.3-3.4-17.8-9.9-24.6c-6.6-6.9-15.6-10.6-25.9-10.6c-10.3,0-19.5,3.8-26.6,10.9c-7.1,7.1-10.9,16.2-11.2,26.9
		C189.8,270.6,195,276.1,201.6,276.3z"/>
	<path d="M313.5,335.4c20.6,0,37.5-16.8,37.5-37.3v-32.5c0-20.6-16.9-37.3-37.5-37.3S276,245,276,265.5v32.5
		C276,318.7,292.9,335.4,313.5,335.4z M300,265.5c0-7.4,6.1-13.3,13.5-13.3s13.5,6,13.5,13.3v32.5c0,7.4-6.1,13.3-13.5,13.3
		s-13.5-6-13.5-13.3V265.5z"/>
	<path d="M123,294h38c6.6,0,12-5.4,12-12s-5.4-12-12-12h-38c-6.6,0-12,5.4-12,12S116.4,294,123,294z"/>
	<path d="M123,251h38c6.6,0,12-5.4,12-12s-5.4-12-12-12h-38c-6.6,0-12,5.4-12,12S116.4,251,123,251z"/>
	<path d="M123,337h38c6.6,0,12-5.4,12-12s-5.4-12-12-12h-38c-6.6,0-12,5.4-12,12S116.4,337,123,337z"/>
</g>
</svg>
