<?xml version="1.0" encoding="utf-8"?>
<!-- Generator: Adobe Illustrator 18.0.0, SVG Export Plug-In . SVG Version: 6.00 Build 0)  -->
<!DOCTYPE svg PUBLIC "-//W3C//DTD SVG 1.1//EN" "http://www.w3.org/Graphics/SVG/1.1/DTD/svg11.dtd">
<svg version="1.1" id="Layer_1" xmlns="http://www.w3.org/2000/svg" xmlns:xlink="http://www.w3.org/1999/xlink" x="0px" y="0px"
	 viewBox="0 0 512 512" enable-background="new 0 0 512 512" xml:space="preserve">
<g>
	<path d="M364,40H149c-24.9,0-45,20.1-45,45v342c0,24.9,20.1,45,45,45h215c24.9,0,45-20.1,45-45V85C409,60.1,388.9,40,364,40z
		 M379,427c0,8.3-6.7,15-15,15H149c-8.3,0-15-6.7-15-15V85c0-8.3,6.7-15,15-15h215c8.3,0,15,6.7,15,15V427z"/>
	<path d="M339,96H174c-8.3,0-15,6.7-15,15v74c0,8.3,6.7,15,15,15h165c8.3,0,15-6.7,15-15v-74C354,102.7,347.3,96,339,96z M323,170
		H189v-44h134V170z"/>
	<path d="M199.2,336h-25.4c-8.3,0-15,6.7-15,15s6.7,15,15,15h25.4c8.3,0,15-6.7,15-15S207.5,336,199.2,336z"/>
	<path d="M268.7,336h-25.4c-8.3,0-15,6.7-15,15s6.7,15,15,15h25.4c8.3,0,15-6.7,15-15S277,336,268.7,336z"/>
	<path d="M338.3,336h-25.4c-8.3,0-15,6.7-15,15s6.7,15,15,15h25.4c8.3,0,15-6.7,15-15S346.5,336,338.3,336z"/>
	<path d="M199.2,286h-25.4c-8.3,0-15,6.7-15,15s6.7,15,15,15h25.4c8.3,0,15-6.7,15-15S207.5,286,199.2,286z"/>
	<path d="M268.7,286h-25.4c-8.3,0-15,6.7-15,15s6.7,15,15,15h25.4c8.3,0,15-6.7,15-15S277,286,268.7,286z"/>
	<path d="M338.3,286h-25.4c-8.3,0-15,6.7-15,15s6.7,15,15,15h25.4c8.3,0,15-6.7,15-15S346.5,286,338.3,286z"/>
	<path d="M199.2,236h-25.4c-8.3,0-15,6.7-15,15s6.7,15,15,15h25.4c8.3,0,15-6.7,15-15S207.5,236,199.2,236z"/>
	<path d="M268.7,236h-25.4c-8.3,0-15,6.7-15,15s6.7,15,15,15h25.4c8.3,0,15-6.7,15-15S277,236,268.7,236z"/>
	<path d="M338.3,236h-25.4c-8.3,0-15,6.7-15,15s6.7,15,15,15h25.4c8.3,0,15-6.7,15-15S346.5,236,338.3,236z"/>
	<path d="M199.2,386h-25.4c-8.3,0-15,6.7-15,15s6.7,15,15,15h25.4c8.3,0,15-6.7,15-15S207.5,386,199.2,386z"/>
	<path d="M268.7,386h-25.4c-8.3,0-15,6.7-15,15s6.7,15,15,15h25.4c8.3,0,15-6.7,15-15S277,386,268.7,386z"/>
	<path d="M338.3,386h-25.4c-8.3,0-15,6.7-15,15s6.7,15,15,15h25.4c8.3,0,15-6.7,15-15S346.5,386,338.3,386z"/>
</g>
</svg>
