<?xml version="1.0" encoding="utf-8"?>
<!-- Generator: Adobe Illustrator 18.0.0, SVG Export Plug-In . SVG Version: 6.00 Build 0)  -->
<!DOCTYPE svg PUBLIC "-//W3C//DTD SVG 1.1//EN" "http://www.w3.org/Graphics/SVG/1.1/DTD/svg11.dtd">
<svg version="1.1" id="Layer_1" xmlns="http://www.w3.org/2000/svg" xmlns:xlink="http://www.w3.org/1999/xlink" x="0px" y="0px"
	 viewBox="0 0 512 512" enable-background="new 0 0 512 512" xml:space="preserve">
<g>
	<path d="M55,451.1c-2,0-3.9-0.4-5.8-1.2c-5.6-2.3-9.2-7.8-9.2-13.8V130.2c0-18.8,7.4-36.2,20.7-49.3C73.9,68,91.5,61,110.2,61
		h291.6c18.7,0,36.3,7,49.5,19.9c13.4,13,20.7,30.5,20.7,49.3v173.4c0,18.7-7.3,36.6-20.4,50.1c-13.3,13.7-31,21.3-49.8,21.3H138.5
		l-72.9,71.8C62.7,449.6,58.9,451.1,55,451.1z M110.2,91C87.7,91,70,108.2,70,130.2v270.1l51.8-51c2.8-2.8,6.6-4.3,10.5-4.3h269.5
		c21.8,0,40.2-19,40.2-41.5V130.2c0-22-17.7-39.2-40.2-39.2H110.2z"/>
	<g>
		<path d="M353,233H159c-8.3,0-15-6.7-15-15s6.7-15,15-15h194c8.3,0,15,6.7,15,15S361.3,233,353,233z"/>
		<path d="M353,300H159c-8.3,0-15-6.7-15-15s6.7-15,15-15h194c8.3,0,15,6.7,15,15S361.3,300,353,300z"/>
		<path d="M353,167H159c-8.3,0-15-6.7-15-15s6.7-15,15-15h194c8.3,0,15,6.7,15,15S361.3,167,353,167z"/>
	</g>
</g>
</svg>
