<?xml version="1.0" encoding="utf-8"?>
<!-- Generator: Adobe Illustrator 18.0.0, SVG Export Plug-In . SVG Version: 6.00 Build 0)  -->
<!DOCTYPE svg PUBLIC "-//W3C//DTD SVG 1.1//EN" "http://www.w3.org/Graphics/SVG/1.1/DTD/svg11.dtd">
<svg version="1.1" id="Layer_1" xmlns="http://www.w3.org/2000/svg" xmlns:xlink="http://www.w3.org/1999/xlink" x="0px" y="0px"
	 viewBox="0 0 512 512" enable-background="new 0 0 512 512" xml:space="preserve">
<g>
	<path d="M472,149c0-24.9-20.1-45-45-45H85c-24.9,0-45,20.1-45,45v215c0,24.9,20.1,45,45,45h342c24.9,0,45-20.1,45-45V149z M85,134
		h341.9c8.3,0,15.1,5.8,15.1,14v31H70v-31C70,139.8,76.7,134,85,134z M426.9,378H85c-8.3,0-15-6.8-15-15V209h372v154
		C442,371.2,435.2,378,426.9,378z"/>
	<path d="M246,240H121c-8.3,0-15,6.7-15,15s6.7,15,15,15h125c8.3,0,15-6.7,15-15S254.3,240,246,240z"/>
	<path d="M246,294H121c-8.3,0-15,6.7-15,15s6.7,15,15,15h125c8.3,0,15-6.7,15-15S254.3,294,246,294z"/>
</g>
</svg>
