<?xml version="1.0" encoding="utf-8"?>
<!-- Generator: Adobe Illustrator 18.0.0, SVG Export Plug-In . SVG Version: 6.00 Build 0)  -->
<!DOCTYPE svg PUBLIC "-//W3C//DTD SVG 1.1//EN" "http://www.w3.org/Graphics/SVG/1.1/DTD/svg11.dtd">
<svg version="1.1" id="Layer_1" xmlns="http://www.w3.org/2000/svg" xmlns:xlink="http://www.w3.org/1999/xlink" x="0px" y="0px"
	 viewBox="0 0 512 512" enable-background="new 0 0 512 512" xml:space="preserve">
<g>
	<path d="M162.3,217c0-8.3-6.7-15-15-15h-45.6l29.8-30.9c0.1-0.1,0.1,0,0.2-0.1c10.8-11.7,18-20.9,22-28.3
		c4.6-8.4,6.9-17.6,6.9-27.2c0-14.1-5-26.5-14.9-36.8c-10.1-10.5-23.1-15.8-38.9-15.8c-15.7,0-29.2,5.5-40,16.3
		C56.1,90,50.5,103.7,50,120c-0.2,8.3,6.3,15.2,14.6,15.4c8.3,0.2,15.2-6.3,15.4-14.6c0.2-8.6,2.8-15.1,8-20.3
		c5.1-5.1,11.1-7.5,18.8-7.5c7.5,0,12.9,2.1,17.2,6.6c4.5,4.7,6.6,9.8,6.6,16c0,4.6-1.1,8.8-3.3,12.8c-1.9,3.5-6.5,10.2-17.6,22.3
		l-54,56.4c-4.2,4.3-5.3,10.6-3,16.1s7.8,8.9,13.8,8.9h80.7C155.6,232,162.3,225.3,162.3,217z"/>
	<path d="M156.1,184.2c2.5,5.3,7.8,8.8,13.6,8.8H241v26c0,8.3,6.7,15,15,15s15-6.7,15-15v-83c0-8.3-6.7-15-15-15s-15,6.7-15,15v27
		h-39.2l63-75.3c5.3-6.4,4.5-15.9-1.9-21.2c-6.4-5.3-15.8-4.5-21.1,1.9l-83.6,99.9C154.5,172.7,153.7,179,156.1,184.2z"/>
	<path d="M444.8,143.8l-0.6-0.5c-4.7-4-9-8.3-13.4-12.9l-1.4-1.5c-3.4-3.5-6.6-6.8-9.9-9.9l-0.2-0.2c-6.9-6.7-14.5-10.1-22.4-10.1
		c-5.5,0-13.8,1.7-22.1,10L330,163.7c-12.9,12.9-12.7,29.7,0.6,43l27.4,27.4c1.5,1.5,1.7,2.1,1.1,3.6l-0.2,0.3
		c-1.5,2.4-2.7,4.9-4,7.3l-1.5,2.8c-1.3,2.6-2.6,5-4.1,7.4c-10,15.6-22.1,30.7-36.1,44.7c-8,8-16.5,15.7-25.5,22.9l-0.7,0.5l0,0
		c-13.7,10.8-25.3,18-37.2,23c-0.4,0.1-0.7,0.2-1.1,0.4c-0.7,0.2-1.3,0.3-1.6,0.3c-0.5,0-1.4-0.8-1.8-1.2l-0.2-0.2
		c-6.2-6.9-12.4-13.1-19.8-20.4l-6.8-6.8c-6.9-6.9-14.4-10.4-22.2-10.4c-7.8,0-15.3,3.5-22.2,10.4l-21.8,21.8
		c-1.3,1.3-2.5,2.5-3.8,3.7c-1.3,1.3-2.6,2.5-3.8,3.7c-2.6,2.5-5.1,4.9-7.5,7.3c-2.7,2.7-5,5.1-7.1,7.4l-0.1,0.1
		c-12.9,12.9-12.9,29.9-0.2,43.3l27.6,27.6c8.9,8.9,19.8,14,32.4,15.1c2.7,0.2,5.4,0.3,8,0.3c14.3,0,29.6-3.2,48.1-10.2
		c34.1-12.7,65.8-31.7,99.8-59.9c8.7-7.3,17.2-15.1,25.2-23.1c29.1-29.1,52.9-62.6,70.9-99.6c7.8-16.2,18.4-40.8,20.1-67.7
		C463,170.1,457.4,155.5,444.8,143.8z M431.9,186.8c-1.4,21.6-10.5,42.6-17.2,56.5c-16.5,34-38.4,64.8-65.1,91.5
		c-7.4,7.4-15.2,14.5-23.2,21.2c-31.3,25.9-60.2,43.4-91.1,54.9c-15.1,5.6-27.1,8.3-37.6,8.3c-1.8,0-3.7-0.1-5.4-0.2
		c-5.6-0.5-9.9-2.5-13.8-6.5l-27.2-27.2c-0.3-0.3-0.5-0.6-0.7-0.8c0.1-0.1,0.3-0.3,0.5-0.5l0.6-0.6c2-2.1,4.1-4.3,6.6-6.8
		c2.4-2.4,4.7-4.7,7-6.9l0.3-0.3c1.2-1.2,2.4-2.4,3.7-3.6c1.4-1.3,2.7-2.6,4.1-4l21.8-21.8c0.4-0.4,0.7-0.7,1-1c0.3,0.3,0.6,0.6,1,1
		l6.9,6.9l0.1,0.1c7.2,7,13.1,13,18.9,19.4l1,1.1c6.5,6.5,14.5,10,23,10c3.6,0,7.4-0.6,11.4-1.9l0.6-0.1l1.4-0.6
		c15.1-6.3,29.3-14.9,45.9-28.1l0.6-0.5l0.2-0.2c9.5-7.8,18.7-16,27.2-24.5c15.6-15.6,29.1-32.3,40.2-49.8l0.1-0.1
		c2.1-3.4,3.8-6.6,5.3-9.5l1.6-3.1c1-2,2-3.9,2.8-5.1l1.1-1.8l0.3-0.6c6.6-13.4,4.2-27.8-6.5-38.5l-27.4-27.4
		c-0.2-0.2-0.4-0.4-0.5-0.6l44.8-44.8c0.4-0.4,0.7-0.7,1-0.9c0.4,0.3,0.8,0.6,1.4,1.2l0.2,0.2c3,2.9,6,5.9,9.2,9.2l1.5,1.6
		c4.7,4.9,9.6,9.9,15.4,14.8C429.5,170.6,432.6,176,431.9,186.8z"/>
</g>
</svg>
