<?xml version="1.0" encoding="utf-8"?>
<!-- Generator: Adobe Illustrator 18.0.0, SVG Export Plug-In . SVG Version: 6.00 Build 0)  -->
<!DOCTYPE svg PUBLIC "-//W3C//DTD SVG 1.1//EN" "http://www.w3.org/Graphics/SVG/1.1/DTD/svg11.dtd">
<svg version="1.1" id="Layer_1" xmlns="http://www.w3.org/2000/svg" xmlns:xlink="http://www.w3.org/1999/xlink" x="0px" y="0px"
	 viewBox="0 0 512 512" enable-background="new 0 0 512 512" xml:space="preserve">
<path d="M465.3,249.2L375,119.9c-6.9-9.9-18.3-15.9-30.3-15.9H73c-18.2,0-33,15.1-33,33.3V321c0,18.2,14.8,33,33,33h9.1
	c6.9,31,34.3,53.6,67,53.6s60.1-22.6,67-53.6h80.6c6.9,31,34.3,53.6,67,53.6s60.1-22.6,67-53.6h8.4c18.2,0,33-14.8,33-33v-50.7
	C472,262.7,469.7,255.4,465.3,249.2z M149.1,377.7c-21.3,0-38.6-17.3-38.6-38.6s17.3-38.6,38.6-38.6s38.6,17.3,38.6,38.6
	S170.4,377.7,149.1,377.7z M149.1,270.4c-32.7,0-60.1,22.6-67,53.6H73c-1.7,0-3-1.3-3-3V137.3c0-1.7,1.3-3.3,3-3.3h184v190h-41
	C209.2,293,181.8,270.4,149.1,270.4z M363.6,377.7c-21.3,0-38.6-17.3-38.6-38.6s17.3-38.6,38.6-38.6s38.6,17.3,38.6,38.6
	S384.9,377.7,363.6,377.7z M442,321c0,1.7-1.3,3-3,3h-8.4c-6.9-31-34.3-53.6-67-53.6s-60.1,22.6-67,53.6H287V134h57.7
	c2.3,0,4.4,1.3,5.7,3.1l90.3,129.1c0.8,1.2,1.3,2.6,1.3,4.1V321z"/>
</svg>
