<?xml version="1.0" encoding="utf-8"?>
<!-- Generator: Adobe Illustrator 18.0.0, SVG Export Plug-In . SVG Version: 6.00 Build 0)  -->
<!DOCTYPE svg PUBLIC "-//W3C//DTD SVG 1.1//EN" "http://www.w3.org/Graphics/SVG/1.1/DTD/svg11.dtd">
<svg version="1.1" id="Layer_1" xmlns="http://www.w3.org/2000/svg" xmlns:xlink="http://www.w3.org/1999/xlink" x="0px" y="0px"
	 viewBox="0 0 512 512" enable-background="new 0 0 512 512" xml:space="preserve">
<path d="M465.3,274.2c-0.1-0.2-0.2-0.3-0.3-0.5l-90.1-119c-6.9-9.7-18.2-15.7-30.1-15.7h-57.9l0.2-26.6c0.1-8.9-3.3-17.3-9.6-23.6
	S262.8,79,254,79H73c-18.2,0-33,15.1-33,33.3V346c0,18.2,14.8,33,33,33h9.1c6.9,31,34.3,53.6,67,53.6s60.1-22.6,67-53.6h80.6
	c6.9,31,34.3,53.6,67,53.6s60.1-22.6,67-53.6h8.4c18.2,0,33-14.8,33-33v-50.7C472,287.7,469.7,280.4,465.3,274.2z M149.1,402.7
	c-21.3,0-38.6-17.3-38.6-38.6s17.3-38.6,38.6-38.6s38.6,17.3,38.6,38.6S170.4,402.7,149.1,402.7z M149.1,295.4
	c-32.7,0-60.1,22.6-67,53.6H73c-1.7,0-3-1.3-3-3V112.3c0-1.7,1.3-3.3,3-3.3h181c1,0,1.7,0.6,2.1,1c0.4,0.4,0.9,1.2,0.9,2.2
	l-0.3,41.9c0,1.2,0.4,2.5,0.4,3.6V349h-41C209.2,318,181.8,295.4,149.1,295.4z M363.6,402.7c-21.3,0-38.6-17.3-38.6-38.6
	s17.3-38.6,38.6-38.6s38.6,17.3,38.6,38.6S384.9,402.7,363.6,402.7z M442,346c0,1.7-1.3,3-3,3h-8.4c-6.9-31-34.3-53.6-67-53.6
	s-60.1,22.6-67,53.6H287V169h57.7c2.3,0,4.4,1.3,5.7,3.1c0.1,0.2,0.2,0.4,0.3,0.5l90.1,118.8c0.8,1.1,1.1,2.5,1.1,3.9V346z"/>
</svg>
