<?xml version="1.0" encoding="utf-8"?>
<!-- Generator: Adobe Illustrator 18.0.0, SVG Export Plug-In . SVG Version: 6.00 Build 0)  -->
<!DOCTYPE svg PUBLIC "-//W3C//DTD SVG 1.1//EN" "http://www.w3.org/Graphics/SVG/1.1/DTD/svg11.dtd">
<svg version="1.1" id="Layer_1" xmlns="http://www.w3.org/2000/svg" xmlns:xlink="http://www.w3.org/1999/xlink" x="0px" y="0px"
	 viewBox="0 0 512 512" enable-background="new 0 0 512 512" xml:space="preserve">
<path d="M472,139c0-24.9-20.1-45-45-45H85c-24.9,0-45,20.1-45,45v235c0,24.9,20.1,45,45,45h342c24.9,0,45-20.1,45-45V139z
	 M441.8,375.6L333.2,253.3L442,196v177.5C442,374.2,441.9,374.9,441.8,375.6z M70,373.5V196.2l112.2,58.4L71.6,380.2
	C70.6,378.1,70,375.9,70,373.5z M209.6,268.7l40.2,21c2.2,1.1,4.5,1.8,6.9,1.8c2.4,0,4.8-0.5,7-1.7l42.1-22.4L413.1,388H104.3
	L209.6,268.7z M85.1,124h341.9c8.3,0,15.1,6.3,15.1,14.5v23.6l-185.3,97.5L70,162.4v-23.9C70,130.3,76.8,124,85.1,124z"/>
</svg>
