<?xml version="1.0" encoding="utf-8"?>
<!-- Generator: Adobe Illustrator 18.0.0, SVG Export Plug-In . SVG Version: 6.00 Build 0)  -->
<!DOCTYPE svg PUBLIC "-//W3C//DTD SVG 1.1//EN" "http://www.w3.org/Graphics/SVG/1.1/DTD/svg11.dtd">
<svg version="1.1" id="Layer_1" xmlns="http://www.w3.org/2000/svg" xmlns:xlink="http://www.w3.org/1999/xlink" x="0px" y="0px"
	 viewBox="0 0 512 512" enable-background="new 0 0 512 512" xml:space="preserve">
<g>
	<path d="M111.6,200c6.6,0,12-5.4,12-12s-5.4-12-12-12H50.5c-6.6,0-11.5,5.4-11.5,12.1v136.2c0,6.6,5.4,12,12,12s12-5.4,12-12V268
		h48c6.6,0,12-5.4,12-12s-5.4-12-12-12H63v-44H111.6z"/>
	<path d="M205,267.6c20.4-3.1,36-20.7,36-42v-7.2c0-23.4-18.8-42.5-42.2-42.5h-30.7c-6.6,0-12.1,5.4-12.1,12v68.1v68.1
		c0,6.6,5.4,12,12,12s12-5.4,12-12v-50.6l39.3,57.3c2.3,3.4,6.1,5.2,9.9,5.2c2.3,0,4.7-0.7,6.8-2.1c5.5-3.7,6.8-11.2,3.1-16.7
		L205,267.6z M217,218.5v7.2c0,10.2-8,18.4-18.2,18.4H185c-1.6,0-3-0.3-5,0.1V200h18.8C209,200,217,208.3,217,218.5z"/>
	<path d="M347.5,200c6.6,0,12-5.4,12-12s-5.4-12-12-12h-61.1c-6.6,0-12.3,5-12.3,11.6v136.2c0,6.6,5.7,12.2,12.3,12.2h61.1
		c6.6,0,12-5.4,12-12s-5.4-12-12-12H298v-44h49c6.6,0,12-5.4,12-12s-5.4-12-12-12h-49v-44H347.5z"/>
	<path d="M461.5,312H412v-40h49c6.6,0,12-5.4,12-12s-5.4-12-12-12h-49v-48h49.5c6.6,0,12-5.4,12-12s-5.4-12-12-12h-61.1
		c-6.6,0-12.4,5.7-12.4,12.3v136.2c0,6.6,5.7,11.5,12.4,11.5h61.1c6.6,0,12-5.4,12-12S468.1,312,461.5,312z"/>
</g>
</svg>
