<?xml version="1.0" encoding="utf-8"?>
<!-- Generator: Adobe Illustrator 18.0.0, SVG Export Plug-In . SVG Version: 6.00 Build 0)  -->
<!DOCTYPE svg PUBLIC "-//W3C//DTD SVG 1.1//EN" "http://www.w3.org/Graphics/SVG/1.1/DTD/svg11.dtd">
<svg version="1.1" id="Layer_1" xmlns="http://www.w3.org/2000/svg" xmlns:xlink="http://www.w3.org/1999/xlink" x="0px" y="0px"
	 viewBox="0 0 512 512" enable-background="new 0 0 512 512" xml:space="preserve">
<g>
	<path d="M256,463.4c-2.7,0-5.5-0.7-7.9-2.2c-1.4-0.9-35.1-21.8-75.3-56C118.5,358.8,80.2,312.2,59,266.7
		c-4.7-9.1-9.4-23.5-9.9-25.2c-6-18.8-9.1-37.8-9.1-56.5c0-75.2,58.8-136.4,131-136.4c31.2,0,61.5,11.7,85,32.7
		c23.6-20.9,53.8-32.7,85-32.7c72.2,0,131,61.2,131,136.4c0,18-3,36.4-9,56.3c-3,9.9-9.5,24.3-9.8,24.9c0,0.1-0.1,0.1-0.1,0.2
		c-21.2,45.6-59.5,92.2-114,138.6c-40.2,34.3-73.9,55.2-75.3,56C261.5,462.6,258.7,463.4,256,463.4z M171,78.6
		c-55.7,0-101,47.7-101,106.4c0,15.6,2.6,31.5,7.6,47.3c1.2,3.8,5.1,15,8.1,20.8c0.1,0.2,0.2,0.4,0.3,0.6
		C125.9,339.4,227,411.1,256,430.5c29-19.4,130.1-91.2,169.9-176.6c1.7-3.7,6.4-14.6,8.4-21.3c5.2-17,7.7-32.5,7.7-47.5
		c0-58.7-45.3-106.4-101-106.4c-28.3,0-54.5,12-73.8,33.8c-2.8,3.2-6.9,5-11.2,5c0,0,0,0,0,0c-4.3,0-8.4-1.8-11.2-5
		C225.5,90.6,199.2,78.6,171,78.6z"/>
</g>
</svg>
