<?xml version="1.0" encoding="utf-8"?>
<!-- Generator: Adobe Illustrator 18.0.0, SVG Export Plug-In . SVG Version: 6.00 Build 0)  -->
<!DOCTYPE svg PUBLIC "-//W3C//DTD SVG 1.1//EN" "http://www.w3.org/Graphics/SVG/1.1/DTD/svg11.dtd">
<svg version="1.1" id="Layer_1" xmlns="http://www.w3.org/2000/svg" xmlns:xlink="http://www.w3.org/1999/xlink" x="0px" y="0px"
	 viewBox="0 0 512 512" enable-background="new 0 0 512 512" xml:space="preserve">
<path d="M468.7,265.4c0.2-0.3,0.5-0.6,0.7-0.9c0,0,0-0.1,0.1-0.1c0.2-0.3,0.4-0.6,0.6-0.9c0.1-0.1,0.1-0.2,0.2-0.4
	c0.1-0.2,0.2-0.4,0.3-0.7c0.1-0.1,0.1-0.3,0.2-0.4c0.1-0.2,0.2-0.5,0.3-0.7c0-0.1,0.1-0.2,0.1-0.4c0.1-0.3,0.2-0.7,0.3-1.1
	c0-0.1,0.1-0.2,0.1-0.4c0.1-0.3,0.1-0.5,0.2-0.8c0-0.1,0.1-0.3,0.1-0.4c0-0.3,0.1-0.5,0.1-0.8c0-0.1,0-0.3,0-0.4
	c0-0.4,0.1-0.8,0.1-1.2c0,0,0,0,0,0c0,0,0,0,0,0c0,0,0,0,0-0.1c0-0.4,0-0.8-0.1-1.1c0-0.1,0-0.3,0-0.4c0-0.3-0.1-0.5-0.1-0.8
	c0-0.1,0-0.3-0.1-0.4c-0.1-0.3-0.1-0.6-0.2-0.8c0-0.1,0-0.2-0.1-0.3c-0.1-0.4-0.2-0.7-0.3-1.1c0-0.1-0.1-0.2-0.1-0.4
	c-0.1-0.2-0.2-0.5-0.3-0.7c-0.1-0.1-0.1-0.3-0.2-0.4c-0.1-0.2-0.2-0.5-0.3-0.7c-0.1-0.1-0.1-0.2-0.2-0.3c-0.2-0.3-0.4-0.6-0.6-1
	c0,0,0,0,0-0.1c-0.2-0.3-0.4-0.6-0.6-0.9c-0.1-0.1-0.2-0.2-0.2-0.3c-0.2-0.2-0.4-0.4-0.5-0.6c-0.1-0.1-0.2-0.2-0.3-0.3
	c-0.2-0.2-0.4-0.4-0.6-0.6c-0.1-0.1-0.2-0.2-0.3-0.2c-0.3-0.2-0.6-0.5-0.9-0.7c-0.1-0.1-0.2-0.1-0.3-0.2c-0.2-0.2-0.5-0.3-0.7-0.5
	c-0.1-0.1-0.3-0.2-0.4-0.2c-0.1-0.1-0.2-0.1-0.3-0.2L95.7,41.8C90.5,39,84,39.5,79.3,43.1c-4.7,3.6-6.8,9.7-5.4,15.5l31.4,125.8
	l-61,61c-5.9,5.9-5.9,15.4,0,21.2l60.9,60.9L71.9,453.1c-1.5,5.8,0.5,11.9,5.2,15.6c2.7,2.1,6,3.2,9.3,3.2c2.4,0,4.9-0.6,7.1-1.8
	l370.6-201c0.1-0.1,0.2-0.1,0.4-0.2c0.1-0.1,0.3-0.2,0.4-0.2c0.3-0.2,0.5-0.3,0.8-0.5c0.1,0,0.1-0.1,0.2-0.1
	c0.3-0.2,0.6-0.5,0.9-0.7c0.1-0.1,0.2-0.2,0.3-0.2c0.2-0.2,0.4-0.4,0.6-0.6c0.1-0.1,0.2-0.2,0.3-0.3c0.2-0.2,0.4-0.4,0.6-0.6
	C468.5,265.6,468.6,265.5,468.7,265.4z M363.3,222l-229-45.8l-22.9-91.6L363.3,222z M76.2,256l50.7-50.7L380.5,256l-253.6,50.7
	L76.2,256z M134.1,335.9l228.4-45.7l-252.6,137L134.1,335.9z"/>
</svg>
