<?xml version="1.0" encoding="utf-8"?>
<!-- Generator: Adobe Illustrator 18.0.0, SVG Export Plug-In . SVG Version: 6.00 Build 0)  -->
<!DOCTYPE svg PUBLIC "-//W3C//DTD SVG 1.1//EN" "http://www.w3.org/Graphics/SVG/1.1/DTD/svg11.dtd">
<svg version="1.1" id="Layer_1" xmlns="http://www.w3.org/2000/svg" xmlns:xlink="http://www.w3.org/1999/xlink" x="0px" y="0px"
	 viewBox="0 0 512 512" enable-background="new 0 0 512 512" xml:space="preserve">
<path d="M135.6,471c-3.3,0-6.7-0.1-10-0.4c-15.2-1.4-28.3-7.5-39.1-18.3l-35.5-35.5C36.2,401.1,36.3,382,51.3,367l0.2-0.2
	c2.7-2.9,5.6-5.9,9.1-9.4c3.1-3.1,6.2-6.2,9.6-9.4c1.6-1.6,3.3-3.2,4.9-4.8c1.6-1.6,3.3-3.2,4.9-4.8l28.1-28.1
	c8.1-8.1,16.7-12.2,25.6-12.2c8.9,0,17.5,4.1,25.6,12.2l8.8,8.8c9.5,9.4,17.6,17.4,25.5,26.2l0.4,0.4c2.8,2.8,4.6,2.8,5.4,2.8
	c1.2,0,2.5-0.3,3.5-0.6c0.5-0.2,1-0.4,1.5-0.5c15.9-6.7,31.2-16.1,49.4-30.5l0.1-0.1l0.6-0.5c11.6-9.4,22.8-19.5,33.2-29.9
	c18.3-18.3,34.1-37.9,47.2-58.3c2-3.1,3.6-6.4,5.4-9.8l1.9-3.7c1.6-3.1,3.2-6.2,5-9.1l0.4-0.6c2-4.3,0.6-6.9-2.1-9.7L310,159.7
	c-6.3-6.3-10.1-13.2-11.3-20.4c-1.2-7.2-0.3-18,10.5-28.8L367,52.7C374.8,45,383.3,41,392.4,41c9.1,0,17.8,4,25.9,11.8l0.2,0.2
	c4.2,4.1,8.4,8.2,12.7,12.7l1.9,1.9c5.6,5.7,11.3,11.7,17.6,16.9l0.6,0.5c15.4,14.3,22,31.5,20.6,54.3
	c-2.2,33.9-15.6,65.1-25.5,85.6c-22.9,47.3-53.4,90.1-90.5,127.3c-10.2,10.2-21.1,20.2-32.3,29.5c-43.4,36-83.9,60.3-127.4,76.5
	C172.7,466.9,153.5,471,135.6,471z M72.7,396l35.1,35.1c5.9,5.9,12.2,8.8,20.5,9.6c2.4,0.2,4.8,0.3,7.3,0.3c14.2,0,30.1-3.5,50-10.9
	c40.3-15,78-37.7,118.7-71.4c10.4-8.7,20.6-18,30.2-27.6c34.8-34.8,63.3-74.9,84.7-119.1c8.8-18.2,20.8-45.8,22.6-74.4
	c0.8-13.5-2.3-22.3-10.8-30.2c-7.4-6.2-13.6-12.6-19.6-18.8l-1.9-2c-4.1-4.2-8-8.1-11.9-11.9l-0.2-0.2c-2.8-2.7-4.5-3.3-5-3.3
	c-0.4,0-1.8,0.5-4.2,2.9l-57.8,57.8c-1.6,1.6-2,2.6-2.1,2.9c0.1,0.4,0.8,1.9,2.9,4l35.3,35.3c12.4,12.4,15.3,29.1,7.6,44.6l-0.3,0.6
	l-1.3,2.1c-1.1,1.8-2.4,4.3-3.7,6.9l-2,3.9c-1.9,3.6-4,7.8-6.7,12l-0.1,0.1c-14.2,22.3-31.4,43.6-51.3,63.5
	c-10.9,10.9-22.7,21.5-34.9,31.5l-0.2,0.2l-0.7,0.5c-21.1,16.7-39,27.7-58.1,35.6l-1.4,0.6l-0.8,0.2c-3,1-7.7,2.3-13.4,2.3
	c-9.8,0-19-4-26.6-11.6l-1.2-1.2c-7.5-8.3-15.2-16.1-24.5-25.2l-0.1-0.1l-8.9-8.9c-2.5-2.5-4-3.2-4.4-3.4c-0.4,0.2-1.9,0.8-4.4,3.4
	l-28.1,28.1c-1.7,1.7-3.5,3.4-5.2,5.1c-1.6,1.6-3.2,3.1-4.8,4.7l-0.3,0.3c-3.1,2.9-6,5.9-9.1,9c-3.2,3.2-6,6.2-8.5,8.9l-0.7,0.7
	C69.6,391.1,68.8,391.9,72.7,396z"/>
</svg>
