<?xml version="1.0" encoding="utf-8"?>
<!-- Generator: Adobe Illustrator 18.0.0, SVG Export Plug-In . SVG Version: 6.00 Build 0)  -->
<!DOCTYPE svg PUBLIC "-//W3C//DTD SVG 1.1//EN" "http://www.w3.org/Graphics/SVG/1.1/DTD/svg11.dtd">
<svg version="1.1" id="Layer_1" xmlns="http://www.w3.org/2000/svg" xmlns:xlink="http://www.w3.org/1999/xlink" x="0px" y="0px"
	 viewBox="0 0 512 512" enable-background="new 0 0 512 512" xml:space="preserve">
<path d="M436.1,201h-8.9c-11.5-39-37.1-73.1-72.1-94.9V55c0-5.4-3-10.3-7.6-13c-4.6-2.7-10.4-2.7-15.1,0l-66.9,38.6
	c-13.7,0.1-54,0.2-54.4,0.2C119,80.8,44,155.7,44,247.8V264c0,57.9,30,111.5,80,142v51c0,8.3,6.5,15,14.8,15h67
	c4,0,7.9-1.6,10.7-4.4c2.8-2.8,4.5-6.6,4.5-10.6v-26h37v26c0,8.3,6.5,15,14.8,15h67c8.3,0,15.3-6.7,15.3-15v-51.1
	c35-22,60.7-55.9,72.1-94.9h8.9c17.5,0,31.9-14.5,31.9-32V233C468,215.5,453.6,201,436.1,201z M438,279c0,1-1,2-1.9,2h-20.6
	c-7.1,0-13.2,4.8-14.7,11.8c-8.2,38.7-33,72.1-68.2,91.5c-4.8,2.6-7.6,7.6-7.6,13.1V442h-37v-25.8c0-8.3-7-15.2-15.3-15.2h-67
	c-4,0-7.7,1.7-10.5,4.5c-2.8,2.8-4.3,6.7-4.3,10.7V442h-37v-44.6c0-5.5-3.2-10.5-8-13.2C101.7,360,74,314,74,264v-16.2
	c0-75.5,61.5-137,137.1-137c2.1,0,52.1-0.2,58.5-0.2c2.6,0,5.2-0.7,7.5-2L325,81v33.7c0,5.5,2.9,10.5,7.7,13.2
	c35.1,19.2,59.9,52.4,68.2,91.4c1.5,6.9,7.5,11.8,14.6,11.8h20.6c1,0,1.9,1,1.9,2V279z"/>
<path d="M271,159h-65c-8.3,0-15,6.7-15,15s6.7,15,15,15h65c8.3,0,15-6.7,15-15S279.3,159,271,159z"/>
</svg>
