<?xml version="1.0" encoding="utf-8"?>
<!-- Generator: Adobe Illustrator 18.0.0, SVG Export Plug-In . SVG Version: 6.00 Build 0)  -->
<!DOCTYPE svg PUBLIC "-//W3C//DTD SVG 1.1//EN" "http://www.w3.org/Graphics/SVG/1.1/DTD/svg11.dtd">
<svg version="1.1" id="Layer_1" xmlns="http://www.w3.org/2000/svg" xmlns:xlink="http://www.w3.org/1999/xlink" x="0px" y="0px"
	 viewBox="0 0 512 512" enable-background="new 0 0 512 512" xml:space="preserve">
<g>
	<path d="M256,472c-3,0-6-0.9-8.6-2.7c-13.4-9.4-48.2-35.1-82.7-70.8c-25.8-26.7-46.3-53.7-61.1-80.2
		c-18.6-33.5-28.1-66.3-28.1-97.7c0-48.2,18.8-93.5,52.9-127.6S207.8,40,256,40s93.5,18.8,127.6,52.9s52.9,79.4,52.9,127.6
		c0,31.3-9.4,64.1-27.9,97.5c-14.7,26.5-35.2,53.5-60.9,80.1c-34.6,35.9-69.6,61.7-83,71.1C262,471.1,259,472,256,472z M256,70
		c-40.2,0-78,15.7-106.4,44.1c-28.4,28.4-44.1,66.2-44.1,106.4c0,26.2,8.2,54.2,24.3,83.1c13.5,24.3,32.5,49.2,56.5,74
		c26.9,27.9,54,49.2,69.8,60.9c15.9-11.7,43.1-33.2,70.1-61.2c23.9-24.8,42.8-49.6,56.3-73.9c16-28.9,24.2-56.8,24.2-83
		c0-40.2-15.7-78-44.1-106.4C334,85.7,296.2,70,256,70z"/>
	<path d="M255.9,305c-46.6,0-84.4-37.9-84.4-84.4s37.9-84.4,84.4-84.4s84.4,37.9,84.4,84.4S302.4,305,255.9,305z M255.9,166.1
		c-30,0-54.4,24.4-54.4,54.4c0,30,24.4,54.4,54.4,54.4s54.4-24.4,54.4-54.4C310.3,190.5,285.9,166.1,255.9,166.1z"/>
</g>
</svg>
