<?xml version="1.0" encoding="utf-8"?>
<!-- Generator: Adobe Illustrator 18.0.0, SVG Export Plug-In . SVG Version: 6.00 Build 0)  -->
<!DOCTYPE svg PUBLIC "-//W3C//DTD SVG 1.1//EN" "http://www.w3.org/Graphics/SVG/1.1/DTD/svg11.dtd">
<svg version="1.1" id="Layer_1" xmlns="http://www.w3.org/2000/svg" xmlns:xlink="http://www.w3.org/1999/xlink" x="0px" y="0px"
	 viewBox="0 0 512 512" enable-background="new 0 0 512 512" xml:space="preserve">
<g>
	<path d="M103,258.1c-0.1-0.1-0.1-0.1-0.2-0.2L77.6,236c-9-8.2-12.8-12.7-14.3-15c-1.5-2.3-2.3-4.6-2.3-7.2c0-2.3,0.5-5.5,4.7-9.1
		c3.7-3.2,8.7-4.8,15.3-4.8c6.8,0,12.2,1.8,16.6,5.4c3.9,3.3,5.8,7.1,6,12.2c0.2,6.6,5.7,11.8,12.4,11.6c6.6-0.2,11.8-5.8,11.6-12.4
		c-0.4-11.9-5.4-22.2-14.6-29.8c-8.7-7.3-19.5-11-32-11c-12.5,0-22.9,3.6-31,10.6c-8.5,7.4-13,16.8-13,27.2c0,7.3,2.1,14.1,6.2,20.4
		c3.4,5.2,9.4,11.7,18.4,19.8c0,0,0.1,0.1,0.1,0.1c0,0,0.1,0.1,0.1,0.1L87,276c9,8.2,12.8,12.7,14.3,15c1.5,2.3,2.3,4.6,2.3,7.2
		c0,2.3-0.5,5.5-4.7,9.1c-3.7,3.2-8.7,4.8-15.3,4.8c-6.8,0-12.2-1.8-16.6-5.4c-3.9-3.3-5.8-7.1-6-12.2c-0.2-6.5-5.5-11.6-12-11.6
		c-0.1,0-0.3,0-0.4,0c-6.6,0.2-11.8,5.8-11.6,12.4c0.4,11.9,5.4,22.2,14.6,29.8c8.7,7.3,19.5,11,32,11s22.9-3.6,31-10.6
		c8.5-7.4,13-16.8,13-27.2c0-7.3-2.1-14.1-6.2-20.4C118,272.6,112,266.2,103,258.1z"/>
	<path d="M463,312h-49v-44h48c6.6,0,12-5.4,12-12s-5.4-12-12-12h-48v-44h49c6.6,0,12-5.4,12-12s-5.4-12-12-12h-61.1
		c-6.6,0-11.9,5.3-11.9,11.9v136.2c0,6.6,5.2,11.9,11.9,11.9H463c6.6,0,12-5.4,12-12S469.6,312,463,312z"/>
	<path d="M349.3,312H300V187.9c0-6.6-5.4-12-12-12s-12,5.4-12,12v136.2c0,6.6,5.5,11.9,12.1,11.9h61.1c6.6,0,12-5.4,12-12
		S355.9,312,349.3,312z"/>
	<path d="M200.5,175.9c-23.5,0-42.5,16.8-42.5,37.5v110.7c0,6.6,5.4,12,12,12s12-5.4,12-12V270h37v54.1c0,6.6,5.4,12,12,12
		s12-5.4,12-12V213.4C243,192.7,224,175.9,200.5,175.9z M182,246v-32.6c0-7.3,8.4-13.5,18.5-13.5s18.5,6.2,18.5,13.5V246H182z"/>
</g>
</svg>
