<?xml version="1.0" encoding="utf-8"?>
<!-- Generator: Adobe Illustrator 18.0.0, SVG Export Plug-In . SVG Version: 6.00 Build 0)  -->
<!DOCTYPE svg PUBLIC "-//W3C//DTD SVG 1.1//EN" "http://www.w3.org/Graphics/SVG/1.1/DTD/svg11.dtd">
<svg version="1.1" id="Layer_1" xmlns="http://www.w3.org/2000/svg" xmlns:xlink="http://www.w3.org/1999/xlink" x="0px" y="0px"
	 viewBox="0 0 512 512" enable-background="new 0 0 512 512" xml:space="preserve">
<path d="M460.1,438.9L356.6,335.4c25.7-30.5,41.1-69.8,41.1-112.8c0-96.7-78.4-175.1-175.1-175.1c-96.7,0-175.1,78.4-175.1,175.1
	c0,96.7,78.4,175.1,175.1,175.1c43,0,82.3-15.5,112.8-41.1l103.5,103.5c2.9,2.9,6.8,4.4,10.6,4.4s7.7-1.5,10.6-4.4
	C466,454.2,466,444.8,460.1,438.9z M120,325.2c-27.4-27.4-42.5-63.9-42.5-102.6S92.6,147.4,120,120c27.4-27.4,63.9-42.5,102.6-42.5
	s75.2,15.1,102.6,42.5c27.4,27.4,42.5,63.9,42.5,102.6s-15.1,75.2-42.5,102.6c-27.4,27.4-63.9,42.5-102.6,42.5
	S147.4,352.6,120,325.2z"/>
</svg>
