<?xml version="1.0" encoding="utf-8"?>
<!-- Generator: Adobe Illustrator 18.0.0, SVG Export Plug-In . SVG Version: 6.00 Build 0)  -->
<!DOCTYPE svg PUBLIC "-//W3C//DTD SVG 1.1//EN" "http://www.w3.org/Graphics/SVG/1.1/DTD/svg11.dtd">
<svg version="1.1" id="Layer_1" xmlns="http://www.w3.org/2000/svg" xmlns:xlink="http://www.w3.org/1999/xlink" x="0px" y="0px"
	 viewBox="0 0 512 512" enable-background="new 0 0 512 512" xml:space="preserve">
<path d="M393.2,314.3c-25.4,0-48.1,12.1-62.5,30.8l-135.9-67.9c1.9-6.7,2.9-13.9,2.9-21.2c0-7.3-1-14.4-2.9-21.2l135.9-67.9
	c14.4,18.7,37.1,30.8,62.5,30.8c43.5,0,78.8-35.4,78.8-78.8S436.6,40,393.2,40s-78.8,35.4-78.8,78.8c0,7.3,1,14.4,2.9,21.2
	L181.3,208c-14.4-18.7-37.1-30.8-62.5-30.8C75.4,177.2,40,212.5,40,256s35.4,78.8,78.8,78.8c25.4,0,48.1-12.1,62.5-30.8L317.2,372
	c-1.9,6.7-2.9,13.9-2.9,21.2c0,43.5,35.4,78.8,78.8,78.8s78.8-35.4,78.8-78.8S436.6,314.3,393.2,314.3z M393.2,70
	c26.9,0,48.8,21.9,48.8,48.8s-21.9,48.8-48.8,48.8s-48.8-21.9-48.8-48.8S366.2,70,393.2,70z M118.8,304.8
	C91.9,304.8,70,282.9,70,256s21.9-48.8,48.8-48.8s48.8,21.9,48.8,48.8S145.8,304.8,118.8,304.8z M393.2,442
	c-26.9,0-48.8-21.9-48.8-48.8s21.9-48.8,48.8-48.8s48.8,21.9,48.8,48.8S420.1,442,393.2,442z"/>
</svg>
