<?xml version="1.0" encoding="utf-8"?>
<!-- Generator: Adobe Illustrator 18.0.0, SVG Export Plug-In . SVG Version: 6.00 Build 0)  -->
<!DOCTYPE svg PUBLIC "-//W3C//DTD SVG 1.1//EN" "http://www.w3.org/Graphics/SVG/1.1/DTD/svg11.dtd">
<svg version="1.1" id="Layer_1" xmlns="http://www.w3.org/2000/svg" xmlns:xlink="http://www.w3.org/1999/xlink" x="0px" y="0px"
	 viewBox="0 0 512 512" enable-background="new 0 0 512 512" xml:space="preserve">
<path d="M255.7,472c-3.1,0-6-0.5-8.7-1.5l-0.2-0.1c-51.6-19.4-92.5-44.9-125.1-77.8c-25.7-26.2-41.5-53.6-48.4-83.9
	c-3-12.8-4.5-25.7-4.6-38.3c-0.3-28.9-0.3-58.3-0.3-86.9l0-53.9c0-8.6,2-14.9,6.1-19.1c4-4.1,9.9-6.4,18.1-7
	c48.5-3.2,95-21.2,146.4-56.6c6-4.2,11.2-6.9,17-6.9c5.6,0,10.7,2.7,17,7c38.6,26.9,73.5,43.2,109.7,51.1c9.1,2,18.5,3.1,28.5,4.2
	l0.5,0.1c3.2,0.4,6.7,0.7,10.2,1.2c14,1.8,21.6,10.4,21.6,24.2v56l-0.1,23.1l-0.5,57.6c-0.1,7-0.3,13-0.5,19l0,0.1
	c-1.2,29.5-11.8,57.4-32.4,85.2c-23,31.3-54.5,57.3-96.3,79.4c-12.8,6.8-26.3,12.5-38.2,17.6l-0.8,0.3c-1.3,0.6-2.6,1.1-3.9,1.7
	c-1.4,0.6-2.9,1.2-4.3,1.9C263.3,471.2,259.5,472,255.7,472z M98.4,133.2l0,50.4c0,28.4,0,57.8,0.3,86.6c0.1,10.4,1.4,21.2,3.9,31.9
	c5.7,24.8,18.9,47.5,40.6,69.6c29.1,29.3,66,52.3,112.6,70.1c1.2-0.5,2.3-1,3.5-1.5c1.4-0.6,2.8-1.2,4.3-1.8l0.9-0.4
	c11.2-4.8,23.9-10.3,35.4-16.3c37.7-20,65.9-43.1,86.2-70.7c16.9-22.8,25.5-45.2,26.5-68.6c0.2-5.9,0.4-11.7,0.5-18.3l0.5-58
	l0.1-22.3v-51c-1.8-0.2-3.5-0.4-5.2-0.6l-0.6-0.1c-10.8-1.2-20.9-2.4-31.6-4.7c-40.1-8.8-78.3-26.5-120.2-55.7
	C201.3,109.4,151.1,129,98.4,133.2z"/>
</svg>
