<?xml version="1.0" encoding="utf-8"?>
<!-- Generator: Adobe Illustrator 18.0.0, SVG Export Plug-In . SVG Version: 6.00 Build 0)  -->
<!DOCTYPE svg PUBLIC "-//W3C//DTD SVG 1.1//EN" "http://www.w3.org/Graphics/SVG/1.1/DTD/svg11.dtd">
<svg version="1.1" id="Layer_1" xmlns="http://www.w3.org/2000/svg" xmlns:xlink="http://www.w3.org/1999/xlink" x="0px" y="0px"
	 viewBox="0 0 512 512" enable-background="new 0 0 512 512" xml:space="preserve">
<path d="M449,164h-29.8c-0.2,0-0.4-0.4-0.5-0.6l-98-98c-5.9-5.9-15.4-5.9-21.2,0c-5.9,5.9-5.9,15.4,0,21.2l77.4,77.4H135.2
	l77.4-77.4c5.9-5.9,5.9-15.4,0-21.2c-5.9-5.9-15.4-5.9-21.2,0l-98,98c-0.2,0.2-0.4,0.6-0.5,0.6H63c-12.7,0-23,10.3-23,23v44.5
	c0,12.7,10.3,23.5,23,23.5h4.6l27.7,139.1c6.6,33.1,35.9,56.9,69.6,56.9H347c33.8,0,63-23.8,69.6-56.9L444.4,255h4.6
	c12.7,0,23-10.8,23-23.5V187C472,174.3,461.7,164,449,164z M70,194h372v31H70V194z M387.3,388.3c-3.8,19.1-20.7,32.7-40.2,32.7H165
	c-19.5,0-36.4-13.6-40.2-32.7L98.2,255h315.6L387.3,388.3z"/>
</svg>
