<?xml version="1.0" encoding="utf-8"?>
<!-- Generator: Adobe Illustrator 18.0.0, SVG Export Plug-In . SVG Version: 6.00 Build 0)  -->
<!DOCTYPE svg PUBLIC "-//W3C//DTD SVG 1.1//EN" "http://www.w3.org/Graphics/SVG/1.1/DTD/svg11.dtd">
<svg version="1.1" id="Layer_1" xmlns="http://www.w3.org/2000/svg" xmlns:xlink="http://www.w3.org/1999/xlink" x="0px" y="0px"
	 viewBox="0 0 512 512" enable-background="new 0 0 512 512" xml:space="preserve">
<path d="M457.2,150H136V89.5c0-5.6-3.1-10.7-8-13.3L62.7,41.7c-7.3-3.9-16.4-1.1-20.3,6.3c-3.9,7.3-1.1,16.4,6.3,20.3L106,98.5v184
	c0,39.1,32.3,71.5,71.5,71.5h19.4c-26.9,5-47,29.6-47,58.3c0,33,26.9,59.8,59.9,59.8s59.9-26.7,59.9-59.7c0-28.6-20.2-53.3-47-58.3
	h133.3c-26.9,5-47,29.6-47,58.3c0,33,26.9,59.8,59.9,59.8s59.9-26.7,59.9-59.7c0-28.6-20.2-53.3-47-58.3h19.6
	c39.1,0,70.8-32.3,70.8-71.5V165C472,156.7,465.5,150,457.2,150z M239.6,412c0,16.5-13.4,29.9-29.9,29.9s-29.9-13.4-29.9-29.9
	s13.4-29.9,29.9-29.9S239.6,395.5,239.6,412z M398.7,412c0,16.5-13.4,29.9-29.9,29.9s-29.9-13.4-29.9-29.9s13.4-29.9,29.9-29.9
	S398.7,395.5,398.7,412z M442,282.5c0,22.6-18.2,41.5-40.8,41.5H177.5c-22.6,0-41.5-18.9-41.5-41.5V180h306V282.5z"/>
</svg>
