<?xml version="1.0" encoding="utf-8"?>
<!-- Generator: Adobe Illustrator 18.0.0, SVG Export Plug-In . SVG Version: 6.00 Build 0)  -->
<!DOCTYPE svg PUBLIC "-//W3C//DTD SVG 1.1//EN" "http://www.w3.org/Graphics/SVG/1.1/DTD/svg11.dtd">
<svg version="1.1" id="Layer_1" xmlns="http://www.w3.org/2000/svg" xmlns:xlink="http://www.w3.org/1999/xlink" x="0px" y="0px"
	 viewBox="0 0 512 512" enable-background="new 0 0 512 512" xml:space="preserve">
<path d="M366,463.3c-6.4,0-12.8-1.7-18.5-4.9l-87.6-49.2c-2.4-1.3-5.4-1.3-7.7,0l-87.6,49.2c-5.7,3.2-12.1,4.9-18.5,4.9
	c-11.4,0-22.1-5.1-29.4-14c-7.2-8.7-10-20.2-7.8-31.4l19.7-98.5c0.5-2.7-0.4-5.5-2.4-7.4l-73.9-68.1c-11-10.2-15-25.3-10.3-39.6
	c4.6-14.2,16.7-24.2,31.6-25.9l99.8-11.7c2.7-0.3,5.1-2.1,6.3-4.5l42-91.3c6.3-13.6,19.5-22.1,34.4-22.1c15,0,28.2,8.5,34.4,22.1
	l42,91.3c1.1,2.5,3.5,4.2,6.3,4.5l99.8,11.7c14.9,1.7,27,11.7,31.6,25.9c4.6,14.2,0.7,29.4-10.3,39.6L385.9,312
	c-2,1.9-2.9,4.7-2.4,7.4l19.7,98.5c2.2,11.2-0.6,22.6-7.8,31.4C388.2,458.2,377.4,463.3,366,463.3z M256,378.2
	c6.5,0,12.9,1.7,18.6,4.8l87.6,49.2c1.3,0.7,2.6,1.1,3.9,1.1c2.3,0,4.7-1.1,6.2-3c1.5-1.8,2-4,1.5-6.5l-19.7-98.5
	c-2.6-12.9,1.8-26.4,11.5-35.3l73.8-68.1c3.4-3.1,2.6-6.8,2.2-8.3c-0.5-1.4-2.1-4.9-6.6-5.4l-99.8-11.7c-13-1.5-24.5-9.9-30-21.8
	l-42-91.3c-1.9-4.2-5.7-4.6-7.2-4.6c-1.5,0-5.3,0.4-7.2,4.6l-42,91.3c-5.5,11.9-17,20.3-30,21.8L77,208.1c-4.5,0.5-6.1,4-6.6,5.4
	c-0.5,1.4-1.2,5.2,2.2,8.3l73.9,68.1c9.6,8.9,14,22.4,11.5,35.3l-19.7,98.5c-0.5,2.5,0,4.6,1.5,6.5c1.6,1.9,3.9,3,6.2,3
	c1.3,0,2.6-0.4,3.9-1.1l87.6-49.2C243.1,379.9,249.5,378.2,256,378.2z"/>
</svg>
