<?xml version="1.0" encoding="utf-8"?>
<!-- Generator: Adobe Illustrator 18.0.0, SVG Export Plug-In . SVG Version: 6.00 Build 0)  -->
<!DOCTYPE svg PUBLIC "-//W3C//DTD SVG 1.1//EN" "http://www.w3.org/Graphics/SVG/1.1/DTD/svg11.dtd">
<svg version="1.1" id="Layer_1" xmlns="http://www.w3.org/2000/svg" xmlns:xlink="http://www.w3.org/1999/xlink" x="0px" y="0px"
	 viewBox="0 0 512 512" enable-background="new 0 0 512 512" xml:space="preserve">
<g>
	<path d="M328.2,410.1H87.3c-26.1,0-47.3-21.2-47.3-47.3V149.2c0-26.1,21.2-47.3,47.3-47.3h240.9c19.8,0,42.6,11.5,54.5,27.4
		l78.5,93.5c0.2,0.3,0.4,0.5,0.6,0.8c13.6,18.6,13.6,46.5,0,65c-0.2,0.3-0.4,0.5-0.6,0.7l-78.5,93.5
		C370.9,398.6,348.1,410.1,328.2,410.1z M87.3,131.9c-9.5,0-17.3,7.8-17.3,17.3v213.7c0,9.5,7.8,17.3,17.3,17.3h240.9
		c10.5,0,24.4-7.1,30.5-15.5c0.2-0.3,0.4-0.6,0.6-0.8l78.5-93.4c5.5-7.9,5.5-20.8,0-28.8l-78.4-93.4c-0.2-0.3-0.4-0.5-0.6-0.8
		c-6.2-8.4-20.2-15.5-30.6-15.5H87.3z"/>
</g>
</svg>
