<?xml version="1.0" encoding="utf-8"?>
<!-- Generator: Adobe Illustrator 18.0.0, SVG Export Plug-In . SVG Version: 6.00 Build 0)  -->
<!DOCTYPE svg PUBLIC "-//W3C//DTD SVG 1.1//EN" "http://www.w3.org/Graphics/SVG/1.1/DTD/svg11.dtd">
<svg version="1.1" id="Layer_1" xmlns="http://www.w3.org/2000/svg" xmlns:xlink="http://www.w3.org/1999/xlink" x="0px" y="0px"
	 viewBox="0 0 512 512" enable-background="new 0 0 512 512" xml:space="preserve">
<path d="M443,188v-3l0,0V99.6c0-22.1-18-39.6-40-39.6H96.3C65.3,60,40,85.1,40,116.1c0,3.1,0.3,5.9,0.7,8.9H40v271.1
	c0,31.1,25.3,55.9,56.3,55.9h311.8c19.1,0,34.9-15.1,34.9-34.1v-63.8c16-2.7,29-17.2,29-34.5v-52v-12.4v-32.6
	C472,205.1,459,190.7,443,188z M442,319.5c0,2.8-2.2,5.5-5,5.5H336.7c-2.5,0-4.7-2.5-4.7-5v-45.3c0-2.5,2.2-4.7,4.7-4.7H442V319.5z
	 M96.3,90H403c5.5,0,10,4,10,9.6v44c-3-0.9-6.8-1.6-10.3-1.6H394h-84.5H96.3C81.8,142,70,130.5,70,116C70,101.5,81.8,90,96.3,90z
	 M408.1,422H96.3C81.8,422,70,410.6,70,396.1V165.7c7.9,4.2,16.8,6.3,26.3,6.3h213.2H394h8.7c5.5,0,10.3,4.7,10.3,10.2V240h-76.3
	c-19.1,0-34.7,15.6-34.7,34.7V320c0,19.1,15.7,35,34.7,35H413v62.9C413,420.4,410.6,422,408.1,422z"/>
</svg>
