<?xml version="1.0" encoding="utf-8"?>
<!-- Generator: Adobe Illustrator 18.0.0, SVG Export Plug-In . SVG Version: 6.00 Build 0)  -->
<!DOCTYPE svg PUBLIC "-//W3C//DTD SVG 1.1//EN" "http://www.w3.org/Graphics/SVG/1.1/DTD/svg11.dtd">
<svg version="1.1" id="Layer_1" xmlns="http://www.w3.org/2000/svg" xmlns:xlink="http://www.w3.org/1999/xlink" x="0px" y="0px"
	 viewBox="0 0 512 512" enable-background="new 0 0 512 512" xml:space="preserve">
<g>
	<path d="M241.8,218.3c-5.3-3.9-12.6-2.8-16.6,2.5L186,274.2v-46.2c0-6.6-5.4-12-12-12s-12,5.4-12,12v136.2c0,6.6,5.4,12,12,12
		s12-5.4,12-12v-46.2l39.3,53.4c2.4,3.2,5.9,4.9,9.5,4.9c2.5,0,4.9-0.8,7.1-2.4c5.3-3.9,6.4-11.5,2.5-16.8L199.3,296l45.1-60.9
		C248.3,229.7,247.2,222.2,241.8,218.3z"/>
	<path d="M307.5,215.9c-23.5,0-42.5,16.8-42.5,37.5v14.5v56.2v14.5c0,20.7,19,37.5,42.5,37.5s42.5-16.8,42.5-37.5V306
		c0-6.6-4.9-12-11.6-12h-24.6c-6.6,0-12,5.4-12,12s5.4,12,12,12H326v20.6c0,7.3-8.4,13.5-18.5,13.5s-18.5-6.2-18.5-13.5v-14.5v-56.2
		v-14.5c0-7.3,8.4-13.5,18.5-13.5s18.5,6.2,18.5,13.5v8.6c0,6.6,5.4,12,12,12s12-5.4,12-12v-8.6C350,232.7,331,215.9,307.5,215.9z"
		/>
	<path d="M470.5,432.2l-45.9-279.6c-1.9-15.2-15.2-26.6-31.1-26.6H361l0,0h-5V72.1c0-17.7-14-32.1-31.7-32.1H187.9
		C170.2,40,156,54.4,156,72.1V126h-6l0,0h-32.1c-14.6,0-27.6,10.8-30.9,25.4l-0.1,0.5L40.8,434.8c-1.6,9.6,0.7,18.6,6.5,25.5
		C54.5,468.9,65,472,71.8,472h367.7c0.3,0,0.6,0,0.8,0c0,0,0,0,0,0c9.8,0,19.6-5.2,25.6-13.5C471.5,450.8,473.1,441.3,470.5,432.2z
		 M186,72.1c0-1.1,0.8-2.1,1.9-2.1h136.4c1.1,0,1.7,1,1.7,2.1V126H186V72.1z M440.2,442H72.2c-0.6,0-1.5-0.6-1.9-0.9
		c0-0.2,0-0.6,0.1-1.3l46-282c0.3-1,1.2-1.8,1.5-1.8H186l0,0h140l0,0h67.5c0.8,0,1.2,0.4,1.3,0.5l0,0.3L441,438.1l0.2,1.2l0.4,1.2
		c0.1,0.2,0.1,0.3,0.1,0.4C441.5,441.2,440.7,442,440.2,442z"/>
</g>
</svg>
